<svg width="32" height="33" viewBox="0 0 32 33" fill="none" xmlns="http://www.w3.org/2000/svg">
<mask id="path-1-inside-1_52_3157" fill="white">
<path d="M0 6C0 2.68629 2.68629 0 6 0H26C29.3137 0 32 2.68629 32 6V27C32 30.3137 29.3137 33 26 33H6C2.68629 33 0 30.3137 0 27V6Z"/>
</mask>
<path d="M6 1H26V-1H6V1ZM31 6V27H33V6H31ZM26 32H6V34H26V32ZM1 27V6H-1V27H1ZM6 32C3.23858 32 1 29.7614 1 27H-1C-1 30.866 2.13401 34 6 34V32ZM31 27C31 29.7614 28.7614 32 26 32V34C29.866 34 33 30.866 33 27H31ZM26 1C28.7614 1 31 3.23858 31 6H33C33 2.13401 29.866 -1 26 -1V1ZM6 -1C2.13401 -1 -1 2.13401 -1 6H1C1 3.23858 3.23858 1 6 1V-1Z" fill="#D1D5DB" mask="url(#path-1-inside-1_52_3157)"/>
<path fill-rule="evenodd" clip-rule="evenodd" d="M12.354 23.7002L13.4534 24.7996C13.9 25.2461 14.6238 25.2461 15.0704 24.7996L16.1697 23.7002C16.483 23.3869 16.9072 23.2118 17.3499 23.2118H18.1768C19.859 23.2118 21.223 21.8478 21.223 20.1647V14.8157C21.223 13.1335 19.859 11.7695 18.1768 11.7695H10.3479C8.66479 11.7695 7.30078 13.1335 7.30078 14.8157V20.1647C7.30078 21.8478 8.66479 23.2118 10.3479 23.2118H11.1739C11.6166 23.2118 12.0407 23.3869 12.354 23.7002Z" stroke="#9CA3AF" stroke-width="1.5" stroke-linecap="round" stroke-linejoin="round"/>
<path d="M11.3789 11.7698V10.9915C11.3789 9.3103 12.741 7.94922 14.4289 7.94922H22.2579C23.939 7.94922 25.3011 9.3103 25.3011 10.9915V16.3414C25.3011 18.0294 23.939 19.3905 22.2579 19.3905H21.4319C21.3618 19.3905 21.2927 19.3983 21.2227 19.4051" stroke="#9CA3AF" stroke-width="1.5" stroke-linecap="round" stroke-linejoin="round"/>
<path d="M16.4541 17.6211V17.6909M16.737 17.6361C16.737 17.7932 16.6095 17.9206 16.4524 17.9206C16.2953 17.9206 16.168 17.7932 16.168 17.6361C16.168 17.4789 16.2953 17.3516 16.4524 17.3516C16.6095 17.3516 16.737 17.4789 16.737 17.6361Z" stroke="#9CA3AF" stroke-width="1.5" stroke-linecap="round" stroke-linejoin="round"/>
<path d="M11.7686 17.6211V17.6909M12.0514 17.6361C12.0514 17.7932 11.924 17.9206 11.7669 17.9206C11.6097 17.9206 11.4824 17.7932 11.4824 17.6361C11.4824 17.4789 11.6097 17.3516 11.7669 17.3516C11.924 17.3516 12.0514 17.4789 12.0514 17.6361Z" stroke="#9CA3AF" stroke-width="1.5" stroke-linecap="round" stroke-linejoin="round"/>
</svg>
